<svg width="15" height="18" viewBox="0 0 15 18" fill="none" xmlns="http://www.w3.org/2000/svg">
<path d="M14.5343 12.6847C13.4003 11.7262 12.75 10.3253 12.75 8.841V6.75C12.75 4.11075 10.7895 1.926 8.25 1.56V0.75C8.25 0.33525 7.914 0 7.5 0C7.086 0 6.75 0.33525 6.75 0.75V1.56C4.20975 1.926 2.25 4.11075 2.25 6.75V8.841C2.25 10.3253 1.59975 11.7262 0.459 12.6908C0.16725 12.9405 0 13.3035 0 13.6875C0 14.4113 0.58875 15 1.3125 15H13.6875C14.4113 15 15 14.4113 15 13.6875C15 13.3035 14.8328 12.9405 14.5343 12.6847Z" fill="#C4C4C4"/>
<path d="M7.5 18C8.85825 18 9.9945 17.0317 10.2555 15.75H4.7445C5.0055 17.0317 6.14175 18 7.5 18Z" fill="#C4C4C4"/>
</svg>
