<svg width="45" height="45" viewBox="0 0 45 45" fill="none" xmlns="http://www.w3.org/2000/svg">
<path d="M1.31847 39H7.91025V43.5C7.91025 44.3284 8.50052 45 9.2286 45H43.6816C44.4097 45 45 44.3284 45 43.5V4.5C45 3.6716 44.4097 3 43.6816 3H37.0899V1.5C37.0899 0.6716 36.4996 0 35.7715 0C35.0434 0 34.4532 0.6716 34.4532 1.5V3H27.7735V1.5C27.7735 0.6716 27.1832 0 26.4551 0C25.727 0 25.1368 0.6716 25.1368 1.5V3H18.545V1.5C18.545 0.6716 17.9547 0 17.2266 0C16.4985 0 15.9083 0.6716 15.9083 1.5V3H9.2286C8.50052 3 7.91025 3.6716 7.91025 4.5V13.5C7.91025 24.555 3.87212 33.0596 0.474455 36.3477C0.0480102 36.752 -0.110105 37.4168 0.0787719 38.0107C0.267824 38.6045 0.76335 39 1.31847 39ZM42.3633 42H10.547V39H35.7715C36.0799 39 36.3786 38.877 36.6155 38.6523C38.2004 37.1504 40.6552 33.5746 42.3633 28.9948V42ZM10.547 6H15.9083V7.5C15.9083 8.3284 16.4985 9 17.2266 9C17.9547 9 18.545 8.3284 18.545 7.5V6H25.1368V7.5C25.1368 8.3284 25.727 9 26.4551 9C27.1832 9 27.7735 8.3284 27.7735 7.5V6H34.4532V7.5C34.4532 8.3284 35.0434 9 35.7715 9C36.4996 9 37.0899 8.3284 37.0899 7.5V6H42.3633V12H10.547V6ZM10.5244 14.999H42.3399C42.0428 24.5145 38.833 32.0013 35.2545 36H4.3172C8.37185 30.1219 10.3068 22.4682 10.5244 14.999Z" fill="black"/>
</svg>
