<svg width="45" height="45" viewBox="0 0 45 45" fill="none" xmlns="http://www.w3.org/2000/svg">
<path d="M38.41 6.59004C34.1603 2.34044 28.51 0 22.5 0C16.49 0 10.8397 2.34044 6.59004 6.59004C2.34044 10.8397 0 16.49 0 22.5C0 28.51 2.34044 34.1603 6.59013 38.41C6.90522 38.725 7.3401 38.8463 7.74817 38.7757C7.74879 38.7758 7.74905 38.7764 7.74984 38.7763L18.4021 36.9106C18.6691 36.8639 18.9152 36.736 19.1069 36.5443L36.2384 19.4128C36.7532 18.8979 36.7532 18.0632 36.2384 17.5483L27.4505 8.7605C26.9358 8.24564 26.101 8.24564 25.5861 8.7605L8.45455 25.8921C8.26277 26.0837 8.13489 26.3299 8.08813 26.5969L6.69823 34.5388C4.06415 31.0962 2.63672 26.9081 2.63672 22.5C2.63672 11.5473 11.5473 2.63672 22.5 2.63672C33.4527 2.63672 42.3633 11.5473 42.3633 22.5C42.3633 33.4527 33.4527 42.3633 22.5 42.3633C21.7719 42.3633 21.1816 42.9536 21.1816 43.6816C21.1816 44.4097 21.7719 45 22.5 45C28.51 45 34.1603 42.6596 38.41 38.41C42.6596 34.1603 45 28.51 45 22.5C45 16.49 42.6596 10.8397 38.41 6.59004ZM10.2481 29.5501L15.4491 34.751L9.14476 35.8552L10.2481 29.5501ZM18.1746 33.7476L15.6457 31.2188L30.9127 15.9517L33.4416 18.4806L18.1746 33.7476ZM26.5183 11.5572L29.0484 14.0873L13.7813 29.3543L11.2512 26.8242L26.5183 11.5572Z" fill="black"/>
</svg>
