<svg width="45" height="45" viewBox="0 0 45 45" fill="none" xmlns="http://www.w3.org/2000/svg">
<path d="M43.8566 36.6696L23.7601 11.8994C24.0465 11.4115 23.9857 10.819 23.6484 10.4027L22.0079 8.37932C25.0087 6.14312 27.0662 5.55197 31.5738 5.39034C32.8871 5.34331 33.3276 3.60185 32.1941 2.93626C25.3235 -1.09827 18.8864 -0.972942 13.5787 3.29889L7.97787 7.80689C7.40895 8.26471 7.3208 9.09888 7.7817 9.66551C8.2324 10.2197 8.16024 11.0407 7.58122 11.5067C7.01406 11.9632 6.1805 11.8749 5.72321 11.3097C5.26618 10.7448 4.43843 10.6563 3.87232 11.1113L1.47361 13.0393C-0.229004 14.4095 -0.496279 16.8949 0.881493 18.5945L4.19848 22.6858C5.57002 24.3775 8.06541 24.6403 9.76011 23.2763L12.1581 21.3488C12.7268 20.8917 12.816 20.0584 12.3562 19.4913C11.899 18.9274 11.9881 18.1052 12.5534 17.6502C13.1212 17.1932 13.9558 17.2813 14.4143 17.8466C14.7743 18.2907 15.3631 18.4381 15.8736 18.2595L35.9109 43.0975C37.6878 45.3007 40.908 45.6368 43.1016 43.8631C45.3005 42.085 45.6386 38.8654 43.8566 36.6696ZM17.9759 16.6663L21.761 13.62L24.6322 17.1589L20.8351 20.2104L17.9759 16.6663ZM9.44977 18.2526C9.38658 18.8466 9.45698 19.4345 9.65069 19.9817L8.10759 21.2221C7.53982 21.679 6.70504 21.5909 6.24669 21.0255L2.9297 16.9342C2.47302 16.3709 2.56117 15.5484 3.12613 15.0936L4.6752 13.8486C6.06238 14.6999 7.8963 14.6376 9.23426 13.5606C10.5997 12.4617 11.0222 10.6804 10.4865 9.17209L15.2318 5.3529C18.5869 2.65263 22.4075 1.96427 26.6297 3.28852C23.9848 3.87528 21.9507 5.01214 19.3099 7.1376C18.7416 7.5949 18.653 8.42783 19.1124 8.99464L20.7671 11.0355L15.46 15.3069C12.9753 13.7851 9.75589 15.3743 9.44977 18.2526ZM41.4438 41.813C40.382 42.6714 38.8243 42.5099 37.9631 41.4423L22.4904 22.2625L26.2932 19.2063L41.8091 38.3307C42.6718 39.3935 42.5084 40.9522 41.4438 41.813Z" fill="black"/>
</svg>
