<svg width="45" height="45" viewBox="0 0 45 45" fill="none" xmlns="http://www.w3.org/2000/svg">
<path d="M17.3436 15.0001H3.28114C1.47182 15.0001 0 13.5283 0 11.7186V3.28114C0 1.47182 1.47182 0 3.28114 0H17.3436C19.1533 0 20.6251 1.47182 20.6251 3.28114V11.7186C20.6251 13.5283 19.1533 15.0001 17.3436 15.0001ZM3.28114 2.8125C3.02261 2.8125 2.8125 3.02261 2.8125 3.28114V11.7186C2.8125 11.9775 3.02261 12.1876 3.28114 12.1876H17.3436C17.6025 12.1876 17.8126 11.9775 17.8126 11.7186V3.28114C17.8126 3.02261 17.6025 2.8125 17.3436 2.8125H3.28114Z" fill="white"/>
<path d="M17.3436 45H3.28114C1.47182 45 0 43.5282 0 41.7189V22.0314C0 20.2217 1.47182 18.7499 3.28114 18.7499H17.3436C19.1533 18.7499 20.6251 20.2217 20.6251 22.0314V41.7189C20.6251 43.5282 19.1533 45 17.3436 45ZM3.28114 21.5624C3.02261 21.5624 2.8125 21.7725 2.8125 22.0314V41.7189C2.8125 41.9774 3.02261 42.1875 3.28114 42.1875H17.3436C17.6025 42.1875 17.8126 41.9774 17.8126 41.7189V22.0314C17.8126 21.7725 17.6025 21.5624 17.3436 21.5624H3.28114Z" fill="white"/>
<path d="M41.7189 45H27.6564C25.8467 45 24.3749 43.5282 24.3749 41.7189V33.2814C24.3749 31.4717 25.8467 29.9999 27.6564 29.9999H41.7189C43.5282 29.9999 45 31.4717 45 33.2814V41.7189C45 43.5282 43.5282 45 41.7189 45ZM27.6564 32.8124C27.3975 32.8124 27.1874 33.0225 27.1874 33.2814V41.7189C27.1874 41.9774 27.3975 42.1875 27.6564 42.1875H41.7189C41.9774 42.1875 42.1875 41.9774 42.1875 41.7189V33.2814C42.1875 33.0225 41.9774 32.8124 41.7189 32.8124H27.6564Z" fill="white"/>
<path d="M41.7189 26.2501H27.6564C25.8467 26.2501 24.3749 24.7783 24.3749 22.9686V3.28114C24.3749 1.47182 25.8467 0 27.6564 0H41.7189C43.5282 0 45 1.47182 45 3.28114V22.9686C45 24.7783 43.5282 26.2501 41.7189 26.2501ZM27.6564 2.8125C27.3975 2.8125 27.1874 3.02261 27.1874 3.28114V22.9686C27.1874 23.2275 27.3975 23.4376 27.6564 23.4376H41.7189C41.9774 23.4376 42.1875 23.2275 42.1875 22.9686V3.28114C42.1875 3.02261 41.9774 2.8125 41.7189 2.8125H27.6564Z" fill="white"/>
</svg>
