<svg width="15" height="15" viewBox="0 0 15 15" fill="none" xmlns="http://www.w3.org/2000/svg">
<path d="M10.5766 11.4849V12.6568C10.5766 13.9492 9.52522 15.0007 8.23278 15.0007H2.34385C1.05141 15.0007 0 13.9492 0 12.6568V2.34385C0 1.05141 1.05141 0 2.34385 0H8.23278C9.52522 0 10.5766 1.05141 10.5766 2.34385V3.51578C10.5766 3.83943 10.3143 4.10174 9.99067 4.10174C9.66702 4.10174 9.40471 3.83943 9.40471 3.51578V2.34385C9.40471 1.69769 8.87894 1.17193 8.23278 1.17193H2.34385C1.69769 1.17193 1.17193 1.69769 1.17193 2.34385V12.6568C1.17193 13.303 1.69769 13.8287 2.34385 13.8287H8.23278C8.87894 13.8287 9.40471 13.303 9.40471 12.6568V11.4849C9.40471 11.1612 9.66702 10.8989 9.99067 10.8989C10.3143 10.8989 10.5766 11.1612 10.5766 11.4849ZM14.5716 6.49378L13.2595 5.18165C13.0306 4.95276 12.6596 4.95276 12.4308 5.18165C12.2019 5.41043 12.2019 5.78147 12.4308 6.01024L13.3641 6.94366H6.3284C6.00475 6.94366 5.74244 7.20597 5.74244 7.52963C5.74244 7.85328 6.00475 8.11559 6.3284 8.11559H13.3641L12.4308 9.04901C12.2019 9.27779 12.2019 9.64882 12.4308 9.8776C12.5452 9.99205 12.6951 10.0493 12.8451 10.0493C12.9951 10.0493 13.145 9.99205 13.2595 9.8776L14.5716 8.56548C15.1428 7.99428 15.1428 7.06498 14.5716 6.49378Z" fill="#C4C4C4"/>
</svg>
