<svg width="20" height="23" viewBox="0 0 20 23" fill="none" xmlns="http://www.w3.org/2000/svg">
<path fill-rule="evenodd" clip-rule="evenodd" d="M10 2.54913L12.8571 4.43937L15 5.85706L17.6829 7.80488L20 9.16498V10.6824H17.1429L10 5.95682L2.85714 10.6824H0V9.63754L2.39837 7.80488L5 5.85706L7.14286 4.43937L10 2.54913ZM10 9.63754L20 16.2534V20.5563H17.6829V18.252L15 16.3532L12.8571 14.9355L10 13.0452L7.14286 14.9355L5 16.3532L2.39837 17.9675V20.5563H0V16.2534L10 9.63754Z" fill="#3AB0A4"/>
<path d="M0 0V9.63754L2.39837 7.80488V2.54913H5V5.85706L7.14286 4.43937V0H0Z" fill="#3AB0A4"/>
<path d="M20 9.16498V0H12.8571V4.43937L15 5.85706V2.54913H17.6829V7.80488L20 9.16498Z" fill="#3AB0A4"/>
<path d="M20 20.5563H17.6829H15V16.3532L12.8571 14.9355V22.6829H20V20.5563Z" fill="#3AB0A4"/>
<path d="M2.39837 20.5563H0V22.6829H7.14286V14.9355L5 16.3532V20.5563H2.39837Z" fill="#3AB0A4"/>
</svg>
