<svg width="45" height="45" viewBox="0 0 45 45" fill="none" xmlns="http://www.w3.org/2000/svg">
<path d="M42.9546 22.6892V16.3644C42.9546 14.2198 41.2911 12.4756 39.1893 12.3065L33.3156 2.04726C32.7713 1.09843 31.8924 0.420264 30.8406 0.138663C29.7939 -0.14102 28.6993 0.00586868 27.7625 0.551141L7.6273 12.2735H4.09094C1.83477 12.2735 0 14.1082 0 16.3644V40.9099C0 43.166 1.83467 45.0008 4.09094 45.0008H38.8636C41.1198 45.0008 42.9546 43.1661 42.9546 40.9099V34.5851C44.1424 34.1615 45 33.0369 45 31.7053V25.569C45 24.2374 44.1424 23.1128 42.9546 22.6892ZM36.8125 12.2735H27.8984L34.584 8.38113L36.8125 12.2735ZM33.5678 6.60609L23.8331 12.2735H19.7953L32.5582 4.84275L33.5678 6.60609ZM28.7922 2.31889C29.2546 2.04822 29.7949 1.97631 30.3113 2.11419C30.8337 2.25398 31.2691 2.59158 31.5398 3.06398L31.5419 3.06772L15.7303 12.2735H11.6926L28.7922 2.31889ZM40.9091 40.9099C40.9091 42.0374 39.9912 42.9553 38.8636 42.9553H4.09094C2.96338 42.9553 2.04552 42.0374 2.04552 40.9099V16.3644C2.04552 15.2369 2.96338 14.319 4.09094 14.319H38.8636C39.9912 14.319 40.9091 15.2369 40.9091 16.3644V22.5008H34.7727C31.3889 22.5008 28.6364 25.2533 28.6364 28.6371C28.6364 32.021 31.3889 34.7735 34.7727 34.7735H40.9091V40.9099ZM42.9546 31.7053C42.9546 32.2696 42.4962 32.7281 41.9318 32.7281H34.7727C32.5165 32.7281 30.6818 30.8934 30.6818 28.6371C30.6818 26.381 32.5165 24.5462 34.7727 24.5462H41.9318C42.4961 24.5462 42.9546 25.0046 42.9546 25.569V31.7053Z" fill="black"/>
<path d="M34.7727 26.5917C33.6452 26.5917 32.7273 27.5096 32.7273 28.6371C32.7273 29.7647 33.6452 30.6826 34.7727 30.6826C35.9003 30.6826 36.8181 29.7647 36.8181 28.6371C36.8182 27.5096 35.9004 26.5917 34.7727 26.5917Z" fill="black"/>
</svg>
